<svg xmlns="http://www.w3.org/2000/svg" viewBox="0 0 23 23"><path d="M1 1h7v7h-7zM9 1h4v1h-1v1h-1v-1h-1v1h1v1h-2zM15 1h7v7h-7zM2 2v5h5v-5zM13 2h1v1h-1zM16 2v5h5v-5zM3 3h3v3h-3zM12 3h1v2h1v1h-2v-1h-1v-1h1zM17 3h3v3h-3zM9 5h2v1h-2zM11 6h1v3h-1zM9 7h1v1h-1zM13 7h1v1h-1zM1 9h1v3h1v1h1v1h-2v-1h-1zM4 9h7v1h-2v1h3v-2h1v1h1v5h-1v-1h-2v-1h2v-1h-2v1h-1v-1h-1v1h-1v-1h-1v1h-1v-1h-1v1h-1v-1h-1v-1h1zM14 9h1v1h-1zM17 9h1v1h-1zM19 9h3v1h-1v1h1v1h-2v1h-1v-2h-1v-1h1zM5 10v1h1v-1zM7 10v1h1v-1zM15 10h2v2h-1v-1h-1zM17 12h1v2h2v1h-1v1h1v-1h1v1h1v1h-5v-1h-1v1h1v2h1v1h-1v1h1v1h-2v-3h-1v1h-1v1h1v1h-2v-1h-2v-2h2v-1h2v-2h-1v-1h2v-2h1zM5 13h1v1h-1zM7 13h1v1h-1zM9 14h2v1h-1v2h1v-1h1v2h-2v1h-1zM1 15h7v7h-7zM12 15h1v1h-1zM2 16v5h5v-5zM3 17h3v3h-3zM18 18h2v1h-2zM20 19h2v2h-4v-1h2zM9 21h2v1h-2z"/></svg>